<?xml version="1.0" encoding="UTF-8"?>
<svg width="990px" height="122px" viewBox="0 0 990 122" version="1.1" xmlns="http://www.w3.org/2000/svg" xmlns:xlink="http://www.w3.org/1999/xlink">
    <!-- Generator: Sketch 45.2 (43514) - http://www.bohemiancoding.com/sketch -->
    <title>clouds</title>
    <desc>Created with Sketch.</desc>
    <defs></defs>
    <g id="Page-1" stroke="none" stroke-width="1" fill="none" fill-rule="evenodd" stroke-linecap="round" stroke-linejoin="round">
        <g id="clouds" transform="translate(0.000000, 1.000000)" stroke="#EBEBEB" stroke-width="1.5">
            <path d="M340.74,15.48 C339.74,15.12 338.66,14.82 337.57,14.55 C334.315621,13.762539 330.978279,13.369713 327.63,13.38 C315.74,13.38 305.57,18.14 301.43,24.88" id="Shape"></path>
            <path d="M337.57,14.55 C341.838432,5.75351486 350.819805,0.229733587 360.595922,0.388450718 C370.37204,0.547167849 379.169368,6.35958972 383.15,15.29" id="Shape"></path>
            <path d="M378.84,15.33 C379.68,15.33 380.53,15.25 381.39,15.25 C381.98,15.25 382.57,15.25 383.15,15.25 C387.027008,15.3708519 390.862144,16.0893075 394.52,17.38 C395.564102,17.7575533 396.582868,18.2018017 397.57,18.71" id="Shape"></path>
            <path d="M394.52,17.42 C397.491608,10.8572418 404.070466,6.67991785 411.273926,6.78189455 C418.477387,6.88387126 424.935359,11.2457527 427.72,17.89" id="Shape"></path>
            <path d="M441.3,24.88 C440.220667,21.5729191 437.622367,18.9830611 434.311792,17.9144951 C431.001216,16.8459292 427.379101,17.4280026 424.57,19.48" id="Shape"></path>
            <path d="M317.84,24.88 L317.83,24.88" id="Shape"></path>
            <path d="M426.34,24.88 L426.33,24.88" id="Shape"></path>
            <path d="M445.83,24.88 L429.33,24.88" id="Shape"></path>
            <path d="M330.83,24.88 L320.83,24.88" id="Shape"></path>
            <polyline id="Shape" points="314.83 24.88 301.43 24.88 296.58 24.88"></polyline>
            <path d="M37.42,57.29 C35.89,57.16 34.32,57.08 32.71,57.06 L31.92,57.06 C19.43,57.06 8.92,60.65 5.53,65.56" id="Shape"></path>
            <path d="M32.71,57.06 C34.9499057,49.6708341 41.5778598,44.4759299 49.2881841,44.066235 C56.9985083,43.6565401 64.1396581,48.1198107 67.15,55.23" id="Shape"></path>
            <path d="M83.9,65.55 C83.3752621,61.7805432 81.1953231,58.4420707 77.9551405,56.4457313 C74.7149579,54.4493919 70.7527874,54.0035916 67.15,55.23 C65.8781454,55.6587231 64.6855359,56.2938806 63.62,57.11" id="Shape"></path>
            <path d="M19.53,65.55 L0.86,65.55" id="Shape"></path>
            <path d="M22.53,65.55 L31.38,65.55" id="Shape"></path>
            <polyline id="Shape" points="75.7 65.55 83.9 65.55 88.44 65.55"></polyline>
            <path d="M211.25,17.11 L211.24,17.11" id="Shape"></path>
            <path d="M483.05,82.79 C485.672198,78.4642074 490.48562,75.9592248 495.533054,76.2936173 C500.580488,76.6280098 505.021382,79.7460908 507.05,84.38" id="Shape"></path>
            <path d="M485.63,84.43 C484.869818,83.7402022 483.997232,83.1855352 483.05,82.79 C481.954506,82.3306315 480.777901,82.0959906 479.59,82.1 C475.11284,82.0935686 471.311722,85.3790638 470.67,89.81" id="Shape"></path>
            <path d="M516.72,89.81 C516.157149,86.3808837 513.195001,83.8630578 509.72,83.86 C508.80456,83.8570774 507.897436,84.0337458 507.05,84.38 C506.073504,84.7682711 505.198096,85.3735336 504.49,86.15" id="Shape"></path>
            <path d="M478.71,89.81 L467.58,89.81" id="Shape"></path>
            <path d="M481.71,89.81 L481.7,89.81" id="Shape"></path>
            <path d="M519.08,89.81 L512.08,89.81" id="Shape"></path>
            <path d="M922.49,45.81 C925.500342,38.6998107 932.641492,34.2365401 940.351816,34.646235 C948.06214,35.0559299 954.690094,40.2508341 956.93,47.64" id="Shape"></path>
            <path d="M926,47.69 C924.934464,46.8738806 923.741855,46.2387231 922.47,45.81 C918.867213,44.5835916 914.905042,45.0293919 911.66486,47.0257313 C908.424677,49.0220707 906.244738,52.3605432 905.72,56.13" id="Shape"></path>
            <path d="M970.11,56.13 L988.78,56.13" id="Shape"></path>
            <path d="M967.11,56.13 L958.26,56.13" id="Shape"></path>
            <polyline id="Shape" points="901.2 56.13 905.74 56.13 913.94 56.13"></polyline>
            <path d="M819.12,114.66 C821.148618,110.026091 825.589512,106.90801 830.636946,106.573617 C835.68438,106.239225 840.497802,108.744207 843.12,113.07" id="Shape"></path>
            <path d="M855.49,120.09 C854.848278,115.659064 851.04716,112.373569 846.57,112.38 C845.382099,112.375991 844.205494,112.610631 843.11,113.07 C842.162768,113.465535 841.290182,114.020202 840.53,114.71" id="Shape"></path>
            <path d="M821.68,116.43 C820.971904,115.653534 820.096496,115.048271 819.12,114.66 C818.272564,114.313746 817.36544,114.137077 816.45,114.14 C812.958873,114.147018 809.990873,116.691018 809.45,120.14" id="Shape"></path>
            <path d="M858.58,120.09 L847.45,120.09" id="Shape"></path>
            <path d="M861.78,120.09 L861.76,120.09" id="Shape"></path>
            <path d="M807.08,120.09 L814.08,120.09" id="Shape"></path>
            <path d="M954.75,43 C956.656125,42.4393329 958.633131,42.1564223 960.62,42.16 C969.502725,42.1622293 977.41458,47.7763185 980.35,56.16" id="Shape"></path>
        </g>
    </g>
</svg>