<?xml version="1.0" encoding="UTF-8"?>
<svg width="33px" height="32px" viewBox="0 0 33 32" version="1.1" xmlns="http://www.w3.org/2000/svg" xmlns:xlink="http://www.w3.org/1999/xlink">
    <!-- Generator: Sketch 41.2 (35397) - http://www.bohemiancoding.com/sketch -->
    <title>Circle</title>
    <desc>Created with Sketch.</desc>
    <defs>
        <linearGradient x1="92.2350845%" y1="91.5374692%" x2="14.6193002%" y2="8.87316901%" id="linearGradient-1">
            <stop stop-color="#959595" offset="0%"></stop>
            <stop stop-color="#DDDDDF" offset="100%"></stop>
        </linearGradient>
    </defs>
    <g id="Page-1" stroke="none" stroke-width="1" fill="none" fill-rule="evenodd">
        <g id="Logo-Footer" transform="translate(-7.000000, -7.000000)">
            <g id="Circle" transform="translate(7.000000, 7.000000)">
                <path d="M22.9329998,14.3498505 C23.1974515,12.5740167 21.8515295,11.6193705 20.0111619,10.9825227 L20.6081501,8.57693106 L19.1505524,8.21200514 L18.5693399,10.5542039 C18.1861549,10.4582805 17.792591,10.3677789 17.4015181,10.2781114 L17.986882,7.92048147 L16.5301146,7.55555556 L15.9327113,9.96031307 C15.6155353,9.88774495 15.3041715,9.81601094 15.0019411,9.7405234 L15.0036017,9.73301636 L12.993437,9.22879301 L12.6056853,10.7927612 C12.6056853,10.7927612 13.6871555,11.041745 13.6643222,11.0571761 C14.254668,11.2052318 14.3613619,11.5976835 14.3435104,11.9088089 L13.6634919,14.6492983 C13.7041768,14.6597247 13.756901,14.6747388 13.8150223,14.6980941 C13.7664495,14.6859994 13.7145555,14.6726535 13.661001,14.6597247 L12.7078126,18.4987454 C12.6355762,18.6789145 12.4524943,18.9491682 12.0398335,18.8465719 C12.0543638,18.8678419 10.9803662,18.5809058 10.9803662,18.5809058 L10.2567568,20.2570627 L12.153585,20.732092 C12.506464,20.8209254 12.8522854,20.9139293 13.1927098,21.0015116 L12.5894943,23.434629 L14.0454315,23.7995549 L14.6428348,21.3922951 C15.0405502,21.5007302 15.4266413,21.6008242 15.8044294,21.6950793 L15.2091018,24.0910786 L16.6666995,24.4560045 L17.269915,22.0274747 C19.7554284,22.5000016 21.6244415,22.309406 22.4111541,20.0510359 C23.0450908,18.2326622 22.3796025,17.1837609 21.0718746,16.4997855 C22.0242327,16.2791617 22.7416149,15.6498209 22.9329998,14.3498505 L22.9329998,14.3498505 Z M19.6026526,19.0413381 C19.152213,20.8597118 16.1045841,19.8767056 15.116523,19.6302242 L15.9169355,16.4067815 C16.9049966,16.6545141 20.0734347,17.1449745 19.6026526,19.0413381 Z M20.0535074,14.3235758 C19.6425072,15.9776286 17.1059301,15.1372564 16.2830993,14.9312296 L17.0087846,12.0076517 C17.8316153,12.2136785 20.4815288,12.5982061 20.0535074,14.3235758 L20.0535074,14.3235758 Z" id="symbol" fill="#DDDDDF"></path>
                <g id="Segments-circle">
                    <path d="M16.5,0 C22.2348649,0 27.5371622,3.04888889 30.4045946,8 C33.272027,12.9511111 33.272027,19.0488889 30.4045946,24 C27.5371622,28.9511111 22.2348649,32 16.5,32 C10.7651351,32 5.46283784,28.9511111 2.59540541,24 C-0.272027027,19.0488889 -0.272027027,12.9511111 2.59540541,8 C5.46283784,3.04888889 10.7651351,0 16.5,0 L16.5,2.22222222 C11.5589189,2.22222222 6.99689189,4.84888889 4.52635135,9.11111111 C2.05581081,13.3733333 2.05581081,18.6266667 4.52635135,22.8888889 C6.99689189,27.1511111 11.5589189,29.7777778 16.5,29.7777778 C21.4410811,29.7777778 26.0031081,27.1511111 28.4736486,22.8888889 C30.9441892,18.6266667 30.9441892,13.3733333 28.4736486,9.11111111 C26.0031081,4.84888889 21.4410811,2.22222222 16.5,2.22222222 L16.5,0 Z" id="Base-plate" fill="#DDDDDF"></path>
                    <path d="M16.5,0 C19.3183784,0 22.0877027,0.737777778 24.527027,2.14222222 L23.4121622,4.06666667 C21.3117568,2.85777778 18.9259459,2.22222222 16.5,2.22222222 L16.5,0 Z" id="Segment-1" fill="#DDDDDF"></path>
                    <path d="M24.527027,2.14222222 C26.9663514,3.54666667 28.9954054,5.56888889 30.4045946,8 L28.4736486,9.11111111 C27.2606757,7.01777778 25.5125676,5.27555556 23.4121622,4.06666667 L24.527027,2.14222222 Z" id="Segment-2" fill="#DDDDDF"></path>
                    <path d="M30.4045946,8 C31.8137838,10.4311111 32.5540541,13.1911111 32.5540541,16 L30.3243243,16 C30.3243243,13.5822222 29.6866216,11.2044444 28.4736486,9.11111111 L30.4045946,8 Z" id="Segment-3" fill="#DDDDDF"></path>
                    <path d="M32.5540541,16 C32.5540541,18.8088889 31.8137838,21.5688889 30.4045946,24 L28.4736486,22.8888889 C29.6866216,20.7955556 30.3243243,18.4177778 30.3243243,16 L32.5540541,16 Z" id="Segment-4" fill="#DDDDDF"></path>
                    <path d="M30.4045946,24 C28.9954054,26.4311111 26.9663514,28.4533333 24.527027,29.8577778 L23.4121622,27.9333333 C25.5125676,26.7244444 27.2606757,24.9822222 28.4736486,22.8888889 L30.4045946,24 Z" id="Segment-5" fill="#DDDDDF"></path>
                    <path d="M24.527027,29.8577778 C22.0877027,31.2622222 19.3183784,32 16.5,32 L16.5,29.7777778 C18.9259459,29.7777778 21.3117568,29.1422222 23.4121622,27.9333333 L24.527027,29.8577778 Z" id="Segment-6" fill="#DDDDDF"></path>
                    <path d="M8.47297297,29.8577778 C6.03364865,28.4533333 4.00459459,26.4311111 2.59540541,24 L4.52635135,22.8888889 C5.73932432,24.9822222 7.48743243,26.7244444 9.58783784,27.9333333 L8.47297297,29.8577778 Z" id="Segment-8" fill="url(#linearGradient-1)" opacity="0.395889946"></path>
                    <path d="M16.5,32 C13.6816216,32 10.9122973,31.2622222 8.47297297,29.8577778 C8.47297297,29.8577778 7.7413751,29.2034181 8.20594513,28.4242596 C8.67051517,27.6451012 9.58783784,27.9333333 9.58783784,27.9333333 C11.6882432,29.1422222 14.0740541,29.7777778 16.5,29.7777778 L16.5,32 Z" id="Segment-7" fill="#DDDDDF"></path>
                </g>
            </g>
        </g>
    </g>
</svg>